<svg width="64" height="64" viewBox="0 0 64 64" fill="none" xmlns="http://www.w3.org/2000/svg">
<g clip-path="url(#clip0_77_2)">
<rect width="64" height="64" rx="15" fill="#C88A5E"/>
<rect x="4" y="4" width="56" height="56" rx="15" fill="white"/>
<path d="M18.6667 21.8483L8 32.5149L18.6667 43.1816" stroke="#6B4226" stroke-width="4" stroke-linecap="round" stroke-linejoin="round"/>
<path d="M45.3333 21.8483L56 32.5149L45.3333 43.1816" stroke="#6B4226" stroke-width="4" stroke-linecap="round" stroke-linejoin="round"/>
<g clip-path="url(#clip1_77_2)">
<path d="M29.8977 30.5C29.7486 30.5 29.6055 30.5593 29.5 30.6648C29.3945 30.7702 29.3352 30.9133 29.3352 31.0625C29.3352 31.2117 29.3945 31.3548 29.5 31.4602C29.6055 31.5657 29.7486 31.625 29.8977 31.625H34.7727C34.9219 31.625 35.065 31.5657 35.1705 31.4602C35.276 31.3548 35.3352 31.2117 35.3352 31.0625C35.3352 30.9133 35.276 30.7702 35.1705 30.6648C35.065 30.5593 34.9219 30.5 34.7727 30.5H29.8977ZM28.1112 33.5C27.9621 33.5 27.819 33.5593 27.7135 33.6648C27.608 33.7702 27.5487 33.9133 27.5487 34.0625C27.5487 34.2117 27.608 34.3548 27.7135 34.4602C27.819 34.5657 27.9621 34.625 28.1112 34.625H32.9862C33.1354 34.625 33.2785 34.5657 33.384 34.4602C33.4895 34.3548 33.5487 34.2117 33.5487 34.0625C33.5487 33.9133 33.4895 33.7702 33.384 33.6648C33.2785 33.5593 33.1354 33.5 32.9862 33.5H28.1112ZM26.9255 36.5C26.7763 36.5 26.6332 36.5593 26.5278 36.6648C26.4223 36.7702 26.363 36.9133 26.363 37.0625C26.363 37.2117 26.4223 37.3548 26.5278 37.4602C26.6332 37.5657 26.7763 37.625 26.9255 37.625H31.8005C31.9497 37.625 32.0928 37.5657 32.1982 37.4602C32.3037 37.3548 32.363 37.2117 32.363 37.0625C32.363 36.9133 32.3037 36.7702 32.1982 36.6648C32.0928 36.5593 31.9497 36.5 31.8005 36.5H26.9255Z" fill="#C88A5E"/>
<path d="M26.0939 23H37.9064C38.313 22.9988 38.7158 23.078 39.0917 23.2331C39.4676 23.3882 39.809 23.6161 40.0964 23.9038C40.384 24.1912 40.612 24.5326 40.7671 24.9085C40.9222 25.2843 41.0014 25.6872 41.0002 26.0938C41.0002 27.1318 40.6432 28.1893 40.1542 29.2138C39.6652 30.2375 39.0179 31.2815 38.3902 32.2918L38.3842 32.3015C37.7474 33.3275 37.1324 34.3198 36.6742 35.279C36.2137 36.2413 35.9377 37.1165 35.9377 37.9063C35.9377 38.2464 36.0258 38.5807 36.1935 38.8767C36.3612 39.1726 36.6026 39.4201 36.8944 39.5949C37.1862 39.7697 37.5182 39.866 37.8583 39.8743C38.1983 39.8826 38.5347 39.8027 38.8347 39.6423C39.1346 39.482 39.3879 39.2466 39.5698 38.9592C39.7518 38.6718 39.8562 38.3422 39.8728 38.0025C39.8894 37.6628 39.8178 37.3245 39.6648 37.0207C39.5118 36.7169 39.2828 36.4579 38.9999 36.269C38.9385 36.2279 38.8858 36.1752 38.8448 36.1137C38.8037 36.0523 38.7752 35.9834 38.7608 35.9109C38.7465 35.8384 38.7465 35.7639 38.7609 35.6914C38.7754 35.6189 38.804 35.5501 38.845 35.4886C38.8861 35.4272 38.9389 35.3745 39.0003 35.3335C39.0618 35.2925 39.1307 35.264 39.2031 35.2496C39.2756 35.2352 39.3502 35.2352 39.4226 35.2497C39.4951 35.2641 39.564 35.2927 39.6254 35.3338C40.1768 35.7028 40.595 36.2393 40.8183 36.8641C41.0416 37.4889 41.0582 38.1689 40.8656 38.8039C40.673 39.4388 40.2813 39.995 39.7485 40.3905C39.2157 40.7859 38.5699 40.9996 37.9064 41H26.3752C25.5546 41 24.7677 40.6741 24.1875 40.0939C23.6074 39.5137 23.2814 38.7268 23.2814 37.9063C23.2814 36.2308 24.2249 34.4143 25.2239 32.7298C25.4849 32.2903 25.7504 31.8583 26.0114 31.4338C26.6114 30.4558 27.1867 29.519 27.6194 28.6303H25.5427C24.9254 28.6303 24.1282 28.4855 23.6174 27.854C23.2118 27.3577 22.9933 26.7347 23.0002 26.0938C23.0002 25.2733 23.3261 24.4863 23.9063 23.9062C24.4865 23.326 25.2734 23 26.0939 23ZM34.8127 37.9063C34.8127 36.8713 35.1697 35.8168 35.6587 34.7938C36.1454 33.7753 36.7904 32.7365 37.4159 31.7293L37.4287 31.7083C38.0654 30.683 38.6804 29.6893 39.1387 28.7293C39.5992 27.7655 39.8752 26.8865 39.8752 26.0938C39.8761 25.8349 39.8259 25.5785 39.7273 25.3392C39.6287 25.0999 39.4837 24.8825 39.3007 24.6994C39.1177 24.5164 38.9003 24.3714 38.661 24.2729C38.4217 24.1743 38.1652 24.124 37.9064 24.125C37.3843 24.125 36.8835 24.3324 36.5143 24.7016C36.1451 25.0709 35.9377 25.5716 35.9377 26.0938C35.9377 26.7425 36.2534 27.2255 36.8129 27.6005C36.9131 27.6676 36.989 27.7652 37.0295 27.8787C37.07 27.9923 37.073 28.1159 37.0379 28.2312C37.0029 28.3466 36.9317 28.4477 36.8349 28.5195C36.7381 28.5913 36.6207 28.6302 36.5002 28.6303H28.8592C28.3717 29.7425 27.6412 30.932 26.9264 32.0945C26.6759 32.5025 26.4269 32.9068 26.1914 33.3035C25.1752 35.0188 24.4064 36.5818 24.4064 37.9063C24.4064 38.4284 24.6138 38.9292 24.983 39.2984C25.3523 39.6676 25.853 39.875 26.3752 39.875H35.5199C35.0618 39.3213 34.8116 38.6249 34.8127 37.9063ZM24.1252 26.0938C24.1177 26.477 24.2474 26.8498 24.4904 27.146C24.6809 27.3808 25.0454 27.5053 25.5419 27.5053H35.1869C34.9366 27.0774 34.8072 26.5895 34.8127 26.0938C34.8117 25.3751 35.0619 24.6788 35.5199 24.125H26.0939C25.5718 24.125 25.071 24.3324 24.7018 24.7016C24.3326 25.0709 24.1252 25.5716 24.1252 26.0938Z" fill="#C88A5E"/>
</g>
</g>
<defs>
<clipPath id="clip0_77_2">
<rect width="64" height="64" fill="white"/>
</clipPath>
<clipPath id="clip1_77_2">
<rect width="18" height="18" fill="white" transform="translate(23 23)"/>
</clipPath>
</defs>
</svg>
